# xmcd
#
# Track frame offsets: 
#        150
#        17365
#        42920
#        60423
#        78163
#        104418
#        111330
#        130890
#        152490
#        172398
#        188705
#
# Disc length: 3144 seconds
#
# Revision: 0
# Processed by: cddbd v1.5.1PL0 Copyright (c) Steve Scherf et al.
# Submitted via: ExactAudioCopy v0.95a5
#
DISCID=860c460b
DTITLE=Deadman - Paramour
DYEAR=2001
DGENRE=Alternative
TTITLE0=The Ballad of Padre Miguel
TTITLE1=Three Murders
TTITLE2=Blue River
TTITLE3=Ghost Story
TTITLE4=Rosa Marie
TTITLE5=La Zapatista
TTITLE6=The Pale Rider
TTITLE7=Down By The Winedale
TTITLE8=Sun Go Down
TTITLE9=The Water is Washing Over Me
TTITLE10=Lonely Times
EXTD=
EXTT0=
EXTT1=
EXTT2=
EXTT3=
EXTT4=
EXTT5=
EXTT6=
EXTT7=
EXTT8=
EXTT9=
EXTT10=
PLAYORDER=
